<?xml version="1.0" standalone="no"?>
<svg xmlns:xlink="http://www.w3.org/1999/xlink" id="wave" style="transform:rotate(180deg); transition: 0.3s" viewBox="0 0 1440 100" version="1.1" xmlns="http://www.w3.org/2000/svg"><defs><linearGradient id="sw-gradient-0" x1="0" x2="0" y1="1" y2="0"><stop stop-color="rgba(255, 249, 234, 1)" offset="0%"/><stop stop-color="rgba(255, 249, 234, 1)" offset="100%"/></linearGradient></defs><path style="transform:translate(0, 0px); opacity:1" fill="url(#sw-gradient-0)" d="M0,20L30,21.7C60,23,120,27,180,35C240,43,300,57,360,58.3C420,60,480,50,540,38.3C600,27,660,13,720,16.7C780,20,840,40,900,41.7C960,43,1020,27,1080,28.3C1140,30,1200,50,1260,58.3C1320,67,1380,63,1440,53.3C1500,43,1560,27,1620,16.7C1680,7,1740,3,1800,15C1860,27,1920,53,1980,53.3C2040,53,2100,27,2160,16.7C2220,7,2280,13,2340,16.7C2400,20,2460,20,2520,30C2580,40,2640,60,2700,56.7C2760,53,2820,27,2880,25C2940,23,3000,47,3060,55C3120,63,3180,57,3240,58.3C3300,60,3360,70,3420,76.7C3480,83,3540,87,3600,73.3C3660,60,3720,30,3780,15C3840,0,3900,0,3960,13.3C4020,27,4080,53,4140,55C4200,57,4260,33,4290,21.7L4320,10L4320,100L4290,100C4260,100,4200,100,4140,100C4080,100,4020,100,3960,100C3900,100,3840,100,3780,100C3720,100,3660,100,3600,100C3540,100,3480,100,3420,100C3360,100,3300,100,3240,100C3180,100,3120,100,3060,100C3000,100,2940,100,2880,100C2820,100,2760,100,2700,100C2640,100,2580,100,2520,100C2460,100,2400,100,2340,100C2280,100,2220,100,2160,100C2100,100,2040,100,1980,100C1920,100,1860,100,1800,100C1740,100,1680,100,1620,100C1560,100,1500,100,1440,100C1380,100,1320,100,1260,100C1200,100,1140,100,1080,100C1020,100,960,100,900,100C840,100,780,100,720,100C660,100,600,100,540,100C480,100,420,100,360,100C300,100,240,100,180,100C120,100,60,100,30,100L0,100Z"/></svg>